<mxfile host="65bd71144e">
    <diagram id="C4ia9TEnALsho48ELmAE" name="Page-1">
        <mxGraphModel dx="542" dy="420" grid="1" gridSize="10" guides="1" tooltips="1" connect="1" arrows="1" fold="1" page="1" pageScale="1" pageWidth="850" pageHeight="1100" math="0" shadow="0">
            <root>
                <mxCell id="0"/>
                <mxCell id="1" parent="0"/>
                <mxCell id="2" value="&lt;u&gt;Primitive Types&lt;/u&gt;&lt;br&gt;Integer&lt;br&gt;Float&lt;br&gt;Boolean&lt;br&gt;Character" style="whiteSpace=wrap;html=1;" vertex="1" parent="1">
                    <mxGeometry x="365" y="70" width="120" height="220" as="geometry"/>
                </mxCell>
                <mxCell id="3" value="&lt;u&gt;Valid Combinations&lt;/u&gt;&lt;br&gt;Integer//Integer&lt;br&gt;Integer//Float&lt;br&gt;Float//Float&lt;br&gt;Boolean//Boolean&lt;br&gt;Character//Character&lt;br&gt;" style="whiteSpace=wrap;html=1;" vertex="1" parent="1">
                    <mxGeometry x="140" y="70" width="120" height="220" as="geometry"/>
                </mxCell>
                <mxCell id="4" value="&lt;u&gt;Unique Mappings&lt;/u&gt;&lt;br&gt;Integer/Integer -&amp;gt; Float&lt;br&gt;&lt;br&gt;Integer//Float -&amp;gt; Float" style="whiteSpace=wrap;html=1;" vertex="1" parent="1">
                    <mxGeometry x="140" y="320" width="120" height="220" as="geometry"/>
                </mxCell>
            </root>
        </mxGraphModel>
    </diagram>
</mxfile>